<svg enable-background="new 0 0 128 128" viewBox="0 0 128 128" xmlns="http://www.w3.org/2000/svg" xmlns:xlink="http://www.w3.org/1999/xlink"><linearGradient id="a" gradientUnits="userSpaceOnUse" x1="64" x2="64" y1="4.378" y2="123.54"><stop offset="0" stop-color="#fff"/><stop offset="1" stop-color="#c8c9ca"/></linearGradient><path d="m4 4h120v120h-120z" fill="url(#a)"/><g fill="none" stroke="#575757" stroke-miterlimit="10"><path d="m4 4h120v120h-120z"/><path d="m4 104h120"/><path d="m4 84h120"/><path d="m4 64h120"/><path d="m4 44h120"/><path d="m4 24h120"/><path d="m104 4v120"/><path d="m84 4v120"/><path d="m64 4v120"/><path d="m44 4v120"/><path d="m24 4v120"/></g><path d="m10.77 113.19 22.7-37.53 14.1 17.86 23.34-32.17 21.9 12.49 23.35-60.34" style="fill:none;stroke:#ec4431;stroke-linecap:round;stroke-linejoin:round;stroke-miterlimit:10;stroke-width:4"/><path d="m121 7v114h-114v-114zm3-3h-120v120h120z" fill="#424242" opacity=".2"/></svg>